<?xml version="1.0" standalone="no"?>
<!DOCTYPE svg PUBLIC "-//W3C//DTD SVG 20010904//EN"
 "http://www.w3.org/TR/2001/REC-SVG-20010904/DTD/svg10.dtd">
<svg version="1.0" xmlns="http://www.w3.org/2000/svg"
 width="420.000000pt" height="280.000000pt" viewBox="0 0 420.000000 280.000000"
 preserveAspectRatio="xMidYMid meet">

<g transform="translate(0.000000,280.000000) scale(0.100000,-0.100000)"
fill="#000000" stroke="none">
<path d="M529 1923 l-157 -3 -1 -515 -1 -515 104 0 c56 0 144 3 194 6 l92 7 0
143 0 143 148 3 147 3 3 143 3 142 -151 0 -150 0 0 60 0 60 188 0 187 0 2 159
2 158 -82 7 c-78 6 -173 5 -528 -1z"/>
<path d="M1445 1921 l-200 -6 1 -45 c1 -25 -2 -106 -6 -180 -5 -74 -5 -284 -2
-467 l7 -332 245 -5 c135 -3 320 -2 413 1 l167 6 0 149 0 148 -220 0 -220 0 0
35 0 35 160 0 160 0 1 33 c1 17 3 83 4 145 l3 112 -164 0 -164 0 0 40 0 40
200 0 200 0 0 145 0 145 -112 0 c-62 0 -149 2 -193 4 -44 1 -170 0 -280 -3z"/>
<path d="M2204 1412 l0 -509 210 -6 c115 -4 298 -7 407 -7 l197 0 4 39 c2 22
2 90 0 152 l-4 112 -102 -6 c-56 -4 -154 -4 -219 0 l-117 6 0 34 0 33 123 2
c67 1 141 0 165 -1 l42 -3 0 151 0 151 -165 0 -165 0 0 34 0 34 204 -5 204 -6
6 124 c3 68 5 135 3 149 l-2 25 -395 3 -396 2 0 -508z"/>
<path d="M3150 1620 c1 -162 4 -391 7 -507 l6 -213 376 0 376 0 2 165 3 165
-194 0 c-107 0 -196 -3 -199 -7 -2 -5 -2 -1 0 7 5 16 6 233 4 512 l-1 177
-191 -2 -191 -2 2 -295z m55 270 c-3 -5 -14 -10 -23 -9 -14 0 -13 2 3 9 27 11
27 11 20 0z m68 -7 c-7 -2 -19 -2 -25 0 -7 3 -2 5 12 5 14 0 19 -2 13 -5z
m130 0 c-7 -2 -21 -2 -30 0 -10 3 -4 5 12 5 17 0 24 -2 18 -5z m-236 -105 c-2
-13 -4 -3 -4 22 0 25 2 35 4 23 2 -13 2 -33 0 -45z m38 39 c-4 -15 -1 -28 9
-36 18 -15 36 -7 36 17 0 10 10 23 23 31 20 13 21 13 9 -2 -9 -10 -10 -17 -2
-22 5 -3 10 -2 10 4 0 7 9 6 26 -1 23 -11 28 -10 41 7 10 14 26 20 53 20 22 0
40 -4 40 -9 0 -4 6 -6 14 -3 12 5 13 1 4 -24 -6 -17 -17 -33 -24 -36 -8 -3
-15 -19 -15 -37 l-2 -31 -7 35 c-4 19 -8 26 -9 14 -1 -18 -30 -68 -31 -53 -1
18 32 79 39 74 14 -8 41 24 35 40 -4 8 -12 15 -19 15 -7 0 -20 2 -28 5 -10 5
-13 -2 -10 -27 l3 -33 -10 33 c-6 17 -13 32 -15 32 -4 0 -1 -40 5 -65 6 -27
-2 -45 -24 -51 -14 -3 -27 -13 -29 -22 -4 -15 -5 -15 -6 1 0 10 10 22 24 29
20 9 25 18 23 37 -4 35 -61 47 -101 22 -26 -16 -26 -18 -10 -35 10 -9 27 -23
38 -31 l20 -15 -20 7 c-11 3 -26 11 -33 16 -10 8 -19 3 -36 -18 -20 -24 -24
-26 -29 -11 -4 10 -3 15 3 11 5 -3 17 6 26 21 15 22 15 27 3 34 -8 6 -17 4
-22 -3 -6 -8 -7 -6 -3 6 3 9 1 17 -4 17 -11 0 -14 43 -3 53 11 12 14 8 8 -16z
m310 12 c11 -16 1 -19 -13 -3 -7 8 -8 14 -3 14 5 0 13 -5 16 -11z m-34 -62
c-10 -9 -11 -8 -5 6 3 10 9 15 12 12 3 -3 0 -11 -7 -18z m29 3 c-6 -11 -13
-20 -16 -20 -2 0 0 9 6 20 6 11 13 20 16 20 2 0 0 -9 -6 -20z m-339 -106 l-9
-39 1 47 c1 26 5 44 9 40 5 -5 4 -26 -1 -48z m99 25 c0 -6 -4 -7 -10 -4 -5 3
-10 11 -10 16 0 6 5 7 10 4 6 -3 10 -11 10 -16z m94 3 c3 -5 -1 -9 -9 -9 -8 0
-12 4 -9 9 3 4 7 8 9 8 2 0 6 -4 9 -8z m-167 -64 c-3 -8 -6 -5 -6 6 -1 11 2
17 5 13 3 -3 4 -12 1 -19z m-30 -65 c-3 -10 -5 -4 -5 12 0 17 2 24 5 18 2 -7
2 -21 0 -30z m20 -25 c-2 -13 -4 -3 -4 22 0 25 2 35 4 23 2 -13 2 -33 0 -45z
m-10 -90 c-3 -8 -6 -5 -6 6 -1 11 2 17 5 13 3 -3 4 -12 1 -19z m10 -100 c-3
-7 -5 -2 -5 12 0 14 2 19 5 13 2 -7 2 -19 0 -25z m-7 -78 c0 -13 -1 -13 -10 0
-5 8 -10 22 -10 30 0 13 1 13 10 0 5 -8 10 -22 10 -30z m-9 -77 c-12 -20 -14
-14 -5 12 4 9 9 14 11 11 3 -2 0 -13 -6 -23z m422 20 c3 -5 -6 -8 -19 -8 -13
0 -24 3 -24 8 0 4 9 7 19 7 11 0 22 -3 24 -7z m271 -83 c4 -95 0 -90 -12 18
-5 40 -5 71 0 70 5 -2 10 -41 12 -88z m33 -17 c-2 -21 -4 -6 -4 32 0 39 2 55
4 38 2 -18 2 -50 0 -70z m-711 -1 c-15 -15 -16 -15 -16 1 0 10 5 15 10 12 6
-3 10 2 11 12 0 12 2 14 6 5 3 -8 -2 -21 -11 -30z m11 -94 c-2 -13 -4 -3 -4
22 0 25 2 35 4 23 2 -13 2 -33 0 -45z m482 -74 c8 -7 -74 -2 -99 6 -16 5 -2 6
35 3 33 -3 62 -7 64 -9z m109 9 c-10 -2 -28 -2 -40 0 -13 2 -5 4 17 4 22 1 32
-1 23 -4z m-419 -12 c8 -5 -5 -7 -35 -4 -27 3 -51 7 -53 9 -9 8 75 3 88 -5z
m199 -8 c-10 -2 -26 -2 -35 0 -10 3 -2 5 17 5 19 0 27 -2 18 -5z m282 -3 c0
-5 -10 -10 -22 -9 -22 0 -22 1 -3 9 11 5 21 9 23 9 1 1 2 -3 2 -9z m17 -12
c-3 -8 -6 -5 -6 6 -1 11 2 17 5 13 3 -3 4 -12 1 -19z m-134 5 c-7 -2 -19 -2
-25 0 -7 3 -2 5 12 5 14 0 19 -2 13 -5z m-300 -10 c-7 -2 -19 -2 -25 0 -7 3
-2 5 12 5 14 0 19 -2 13 -5z m120 0 c-7 -2 -19 -2 -25 0 -7 3 -2 5 12 5 14 0
19 -2 13 -5z"/>
</g>
</svg>
